<?xml version="1.0" encoding="utf-8"?>
<!DOCTYPE svg PUBLIC "-//W3C//DTD SVG 1.1//EN" "http://www.w3.org/Graphics/SVG/1.1/DTD/svg11.dtd">
<svg version="1.1" id="Capa_1" xmlns="http://www.w3.org/2000/svg" xmlns:xlink="http://www.w3.org/1999/xlink" x="0px" y="0px"
	 width="209.34px" height="209.34px" viewBox="0 0 209.34 209.34" enable-background="new 0 0 209.34 209.34" xml:space="preserve">
<g>
	<path id="fourchette" d="M169.77,14.198c0-1.864-1.512-3.375-3.375-3.375c-1.865,0-3.375,1.511-3.375,3.375c0,11.398,0.24,22.262,0.435,30.99
		c0.047,2.161,0.092,4.146,0.127,5.945l-8.203,0.12V15.848c0-1.864-1.511-3.375-3.375-3.375c-1.862,0-3.375,1.511-3.375,3.375
		v35.505l-7.705,0.113V15.848c0-1.864-1.512-3.375-3.375-3.375c-1.864,0-3.375,1.511-3.375,3.375v35.718l-7.498,0.11V13.067
		c0-1.864-1.511-3.375-3.375-3.375s-3.375,1.511-3.375,3.375v44.631c0,11.463,8.808,19.181,22.743,20.323v28.528
		c-2.438,0.037-3.768,0.076-3.793,0.076c-1.633,0.049-2.998,1.258-3.238,2.875c-2.326,15.539-7.291,56.291-6.887,76.149
		c0.247,12.049,8.139,16.324,14.822,16.324c7.765,0,16.398-5.707,16.813-14.927c0.518-11.547-2.547-52.91-3.855-70.573
		c-0.237-3.218-0.416-5.613-0.5-6.847c-0.118-1.772-1.59-3.149-3.366-3.149c-1.146,0-2.226,0.004-3.242,0.008V77.998
		c12.524-1.381,21.009-10.998,21.009-19.7c0-3.098-0.099-7.582-0.226-13.259C170.008,36.343,169.77,25.522,169.77,14.198z
		 M149.793,116.973c1.301,17.543,4.346,58.629,3.846,69.773c-0.227,5.071-5.391,8.478-10.07,8.478c-5.004,0-7.946-3.54-8.073-9.712
		c-0.354-17.408,3.79-53.895,6.403-72.199c1.775-0.029,4.353-0.063,7.619-0.076C149.596,114.305,149.689,115.561,149.793,116.973z
		 M146.331,71.423c-9.271,0-19.157-3.435-19.636-12.997l36.979-0.543c0,0.141,0.003,0.281,0.003,0.416
		C163.676,64.367,156.1,71.423,146.331,71.423z"/>
	<path id="cuillere" d="M73.146,6.939c-17.413,0-31.579,17.316-31.579,38.6c0,10.075,3.239,19.241,9.122,25.809
		c4.965,5.545,11.493,8.957,18.669,9.848v27.721c-2.439,0.037-3.768,0.073-3.793,0.076c-1.633,0.047-2.998,1.258-3.239,2.872
		c-2.327,15.541-7.292,56.291-6.887,76.15c0.247,12.049,8.139,16.325,14.822,16.325c7.764,0,16.4-5.707,16.814-14.926
		c0.517-11.547-2.548-52.912-3.857-70.576c-0.238-3.215-0.416-5.612-0.499-6.846c-0.119-1.771-1.591-3.148-3.367-3.148
		c-1.145,0-2.226,0.003-3.243,0.009V81.292c7.502-0.723,14.341-4.186,19.497-9.943c5.882-6.569,9.122-15.734,9.122-25.809
		C104.725,24.255,90.559,6.939,73.146,6.939z M76.485,119.338c1.3,17.543,4.345,58.629,3.846,69.772
		c-0.227,5.072-5.391,8.479-10.07,8.479c-5.004,0-7.947-3.541-8.074-9.713c-0.355-17.407,3.79-53.896,6.403-72.198
		c1.777-0.03,4.352-0.063,7.619-0.077C76.287,116.67,76.38,117.926,76.485,119.338z M73.146,74.689
		c-14.387,0-24.829-12.259-24.829-29.15c0-17.562,11.138-31.85,24.829-31.85s24.83,14.288,24.83,31.85
		C97.975,62.429,87.533,74.689,73.146,74.689z"/>
</g>
</svg>
